<svg width="116" height="115" viewBox="0 0 116 115" fill="none" xmlns="http://www.w3.org/2000/svg">
<g clip-path="url(#clip0)">
<path d="M27.8968 115H68.3361C69.5768 115 70.5822 113.995 70.5822 112.754V97.931C70.5822 96.693 71.5851 95.6849 72.8169 95.6849H86.2926C90.0145 95.6849 93.0423 92.6623 93.0423 88.9475V71.6534H101.684C104.238 71.6534 106.541 70.2382 107.695 67.9597C108.849 65.682 108.628 62.9884 107.118 60.9301L93.0256 41.7128C92.7133 20.2223 78.6752 4.88215 59.0342 0.936571C39.7195 -2.94496 19.4178 5.31645 11.4336 24.3854C3.53547 43.2456 8.85415 54.7867 15.0125 68.1509C19.9986 78.9708 25.6507 91.2348 25.6516 110.387V112.754C25.6507 113.995 26.6562 115 27.8968 115ZM19.0914 66.2707C13.141 53.3583 8.4409 43.1596 15.5766 26.1209C23.3608 7.53009 43.1027 2.31581 58.1498 5.34014C72.1685 8.15653 88.5387 19.5669 88.5387 42.4551C88.5387 42.9333 88.6914 43.3983 88.9739 43.7834L103.496 63.5859C104.007 64.2834 104.079 65.1591 103.688 65.9294C103.298 66.7006 102.549 67.1612 101.684 67.1612H90.7962C89.5556 67.1612 88.5501 68.1667 88.5501 69.4073V88.9475C88.5501 90.1855 87.5376 91.1927 86.2926 91.1927H72.8169C69.1074 91.1927 66.09 94.2161 66.09 97.931V110.508H30.1429V110.387C30.142 90.2504 24.2715 77.5108 19.0914 66.2707Z" fill="#757474"/>
<path d="M66.5391 84.4546C66.5391 85.6952 65.5336 86.7007 64.293 86.7007C63.0524 86.7007 62.0469 85.6952 62.0469 84.4546C62.0469 83.214 63.0524 82.2085 64.293 82.2085C65.5336 82.2085 66.5391 83.214 66.5391 84.4546Z" fill="#757474"/>
<path d="M35.3194 44.0271C35.3194 42.7864 34.314 41.781 33.0742 41.781H28.6926C29.1269 37.3712 30.8395 33.2362 33.6498 29.8117L36.7478 32.9098C37.6252 33.7871 39.0474 33.7863 39.9248 32.9098C40.8013 32.0324 40.8013 30.6102 39.9248 29.7328L36.8268 26.6356C40.2512 23.8245 44.3854 22.1127 48.796 21.6775C48.8092 26.2662 48.81 26.5417 48.796 33.1835C46.1823 34.1109 44.3038 36.607 44.3038 39.5349C44.3038 43.2506 47.3264 46.2731 51.0421 46.2731C54.7569 46.2731 57.7804 43.2506 57.7804 39.5349C57.7804 36.607 55.9019 34.1109 53.2882 33.1835C53.2741 26.4628 53.2741 26.2583 53.2882 21.6775C57.6979 22.1127 61.833 23.8245 65.2574 26.6356L62.1594 29.7337C61.282 30.6102 61.282 32.0324 62.1594 32.9098C63.0368 33.7871 64.4581 33.7871 65.3355 32.9098L68.4335 29.8117C71.2438 33.2362 72.9564 37.3712 73.3916 41.781H69.01C67.7693 41.781 66.7639 42.7873 66.7639 44.0271C66.7639 45.2677 67.7693 46.2731 69.01 46.2731H75.7482C76.988 46.2731 77.9935 45.2677 77.9935 44.0271C77.9935 28.7036 65.575 17.0757 51.0421 17.0757C36.1749 17.0757 24.0898 29.1256 24.0898 44.0271C24.0898 45.2677 25.0962 46.2731 26.3359 46.2731H33.0742C34.314 46.2731 35.3194 45.2677 35.3194 44.0271ZM51.0421 41.781C49.8032 41.781 48.796 40.7737 48.796 39.5349C48.796 38.2969 49.8032 37.2888 51.0421 37.2888C52.2801 37.2888 53.2873 38.2969 53.2873 39.5349C53.2873 40.7737 52.2801 41.781 51.0421 41.781Z" fill="#757474"/>
<path d="M71.0312 84.4546C71.0312 85.6943 72.0367 86.7007 73.2765 86.7007H82.2608C83.5015 86.7007 84.5069 85.6943 84.5069 84.4546C84.5069 83.214 83.5015 82.2085 82.2608 82.2085H73.2765C72.0367 82.2085 71.0312 83.214 71.0312 84.4546Z" fill="#757474"/>
</g>
<defs>
<clipPath id="clip0">
<rect width="115" height="115" fill="white" transform="translate(0.5)"/>
</clipPath>
</defs>
</svg>
