<svg width="116" height="115" viewBox="0 0 116 115" fill="none" xmlns="http://www.w3.org/2000/svg">
<g clip-path="url(#clip0)">
<path d="M58.5684 78.2795C58.5392 78.1358 58.4965 77.9943 58.4403 77.8595C58.3842 77.7225 58.3146 77.5922 58.2337 77.4709C58.1528 77.3474 58.0585 77.2328 57.9552 77.1295C57.4341 76.6084 56.6569 76.3681 55.927 76.5163C55.7855 76.5433 55.644 76.5882 55.5069 76.6444C55.3722 76.7005 55.2419 76.7701 55.1206 76.851C54.9971 76.9319 54.8825 77.0262 54.7792 77.1295C54.6759 77.2328 54.5815 77.3474 54.4984 77.4709C54.4176 77.5922 54.348 77.7225 54.2918 77.8595C54.2356 77.9943 54.193 78.1358 54.1638 78.2795C54.1346 78.4233 54.1211 78.5715 54.1211 78.7175C54.1211 79.3082 54.3592 79.8877 54.7792 80.3055C54.8825 80.4088 54.9971 80.5032 55.1206 80.584C55.2419 80.6649 55.3722 80.7345 55.5069 80.7907C55.644 80.8468 55.7855 80.8918 55.927 80.9187C56.073 80.9479 56.2212 80.9636 56.3672 80.9636C56.9579 80.9636 57.5374 80.7233 57.9552 80.3055C58.373 79.8877 58.6133 79.3082 58.6133 78.7175C58.6133 78.5715 58.5976 78.4233 58.5684 78.2795Z" fill="#757474"/>
<path d="M82.4573 57.1664C82.4281 57.0226 82.3855 56.8811 82.3293 56.7441C82.2731 56.6093 82.2035 56.4791 82.1227 56.3578C82.0396 56.2342 81.9452 56.1197 81.8419 56.0164C81.7386 55.913 81.624 55.8187 81.5005 55.7378C81.3792 55.657 81.2489 55.5874 81.1142 55.5312C80.9772 55.4751 80.8379 55.4301 80.6941 55.4032C80.4044 55.3448 80.1057 55.3448 79.8159 55.4032C79.6722 55.4301 79.5307 55.4751 79.3959 55.5312C79.2589 55.5874 79.1286 55.657 79.0073 55.7378C78.8838 55.8187 78.7692 55.913 78.6659 56.0164C78.5626 56.1197 78.4683 56.2342 78.3874 56.3578C78.3065 56.4791 78.2369 56.6093 78.1808 56.7441C78.1246 56.8811 78.0819 57.0226 78.0527 57.1664C78.0235 57.3101 78.0078 57.4584 78.0078 57.6043C78.0078 57.7503 78.0235 57.8986 78.0527 58.0423C78.0819 58.1861 78.1246 58.3276 78.1808 58.4646C78.2369 58.5994 78.3065 58.7296 78.3874 58.8509C78.4683 58.9745 78.5626 59.089 78.6659 59.1923C78.7692 59.2957 78.8838 59.39 79.0073 59.4709C79.1286 59.5517 79.2589 59.6213 79.3959 59.6775C79.5307 59.7337 79.6722 59.7786 79.8159 59.8055C79.9597 59.8347 80.1079 59.8504 80.2539 59.8504C80.3999 59.8504 80.5481 59.8347 80.6941 59.8055C80.8379 59.7786 80.9772 59.7337 81.1142 59.6775C81.2489 59.6213 81.3792 59.5517 81.5005 59.4709C81.624 59.39 81.7386 59.2957 81.8419 59.1923C81.9452 59.089 82.0396 58.9745 82.1227 58.8509C82.2035 58.7296 82.2731 58.5994 82.3293 58.4646C82.3855 58.3276 82.4281 58.1861 82.4573 58.0423C82.4865 57.8986 82.5 57.7503 82.5 57.6043C82.5 57.4584 82.4865 57.3101 82.4573 57.1664Z" fill="#757474"/>
<path d="M113.254 65.9151H92.8145V47.0479C92.8145 45.8074 91.8089 44.8018 90.5684 44.8018H71.6129C71.7106 44.6695 71.8034 44.5354 71.891 44.3993C72.3105 43.7614 75.5795 38.5156 75.5795 30.056C75.5795 25.3338 73.0448 21.1926 69.2646 18.9212C69.3614 18.8331 69.4566 18.7424 69.5501 18.6487C74.1031 14.0954 72.1917 5.56927 71.9588 4.61221C71.7602 3.79643 71.1233 3.15944 70.3075 2.96111C69.35 2.72819 60.8238 0.81676 56.271 5.36982C52.9923 8.64821 53.0656 13.9867 53.4505 17.076C53.4337 17.076 53.4168 17.0758 53.4 17.0758C46.2428 17.0758 40.42 22.8986 40.42 30.056C40.42 39.5688 43.3853 43.6686 44.4021 44.7919C44.4048 44.7953 44.4075 44.7984 44.4102 44.8018H2.74609C1.50558 44.8018 0.5 45.8074 0.5 47.0479V68.1612C0.5 69.4017 1.50558 70.4072 2.74609 70.4072H5.44141V87.0283H2.74609C1.50558 87.0283 0.5 88.0339 0.5 89.2744V110.388C0.5 111.628 1.50558 112.634 2.74609 112.634H108.313C109.553 112.634 110.559 111.628 110.559 110.388V91.5205H113.254C114.494 91.5205 115.5 90.5149 115.5 89.2744V68.1612C115.5 66.9206 114.494 65.9151 113.254 65.9151ZM92.8145 70.4072H101.051V87.0283H92.8145V70.4072ZM59.4476 8.54647C61.3718 6.62179 65.3901 6.71747 67.8516 7.06809C68.2027 9.53183 68.2977 13.5485 66.3739 15.4723C65.3692 16.4772 63.7936 16.9311 62.1667 17.0859C61.9843 17.0942 61.8011 17.1079 61.6173 17.127C61.3784 17.1402 61.1394 17.1477 60.9022 17.1501L63.8185 14.2338C64.6956 13.3567 64.6956 11.9345 63.8185 11.0571C62.9414 10.18 61.5192 10.18 60.6419 11.0571L57.7713 13.9277C57.8026 11.9163 58.2017 9.79237 59.4476 8.54647ZM53.4002 21.5677C54.4572 21.5677 55.5861 21.9029 56.9535 22.6221C57.6081 22.9664 58.3906 22.9666 59.0451 22.6221C60.0983 22.0679 61.0104 21.742 61.8574 21.6214C62.091 21.6082 62.3269 21.5907 62.5641 21.568C62.576 21.568 62.5876 21.5677 62.5995 21.5677C67.2797 21.5677 71.0873 25.3755 71.0873 30.0557C71.0873 37.3899 68.2563 41.7516 68.1359 41.9338C68.1299 41.9427 68.1238 41.9522 68.118 41.9614C67.1584 43.4584 64.6828 44.6765 62.5995 44.6765C61.1075 44.6765 59.7537 44.0561 59.0795 43.6864C58.7432 43.5017 58.3713 43.4097 57.9993 43.4097C57.6271 43.4097 57.255 43.5022 56.9183 43.6868C56.2451 44.0565 54.8928 44.6765 53.4 44.6765C51.1986 44.6765 48.9498 43.2953 47.8661 41.9308C47.8286 41.8837 47.789 41.8381 47.7479 41.7938C47.4577 41.4834 44.9122 38.5168 44.9122 30.056C44.9125 25.3755 48.7203 21.5677 53.4002 21.5677ZM33.9668 59.8506H72.6829C73.9235 59.8506 74.929 58.845 74.929 57.6045C74.929 56.364 73.9235 55.3584 72.6829 55.3584H33.9668V49.294H88.3223V65.9151H33.9668V59.8506ZM88.3223 70.4072V87.0283H84.0547V70.4072H88.3223ZM69.08 91.5205H79.5625V99.9072L75.4769 97.4558C75.1211 97.2424 74.7213 97.1358 74.3212 97.1358C73.9212 97.1358 73.5212 97.2424 73.1656 97.4558L69.08 99.9072V91.5205ZM69.0798 87.0283V70.4072H79.5625V87.0283H69.0798ZM48.7944 76.4717H9.93359V70.4072H64.5876V87.0283H9.93359V80.9639H48.7944C50.0349 80.9639 51.0405 79.9583 51.0405 78.7178C51.0405 77.4773 50.0349 76.4717 48.7944 76.4717ZM19.8905 49.294H29.4746V65.9151H19.8905V49.294ZM4.99219 65.9151V49.294H15.3983V65.9151H4.99219ZM15.3983 108.142H4.99219V91.5205H15.3983V108.142ZM29.4746 108.142H19.8905V91.5205H29.4746V108.142ZM33.9668 108.142V91.5205H64.5876V103.874C64.5876 104.595 64.9328 105.266 65.5058 105.686C65.5159 105.693 65.526 105.701 65.5361 105.708C65.5565 105.722 65.5772 105.736 65.5981 105.75C65.6399 105.778 65.683 105.804 65.727 105.829C66.4312 106.228 67.2955 106.217 67.9893 105.8L74.321 102.001L80.6528 105.8C80.6638 105.807 80.675 105.814 80.686 105.82C80.6873 105.821 80.6887 105.821 80.69 105.822C80.6997 105.828 80.7091 105.833 80.7188 105.838C80.7246 105.842 80.7305 105.845 80.7365 105.848C80.7417 105.851 80.7469 105.854 80.752 105.856C80.759 105.86 80.766 105.864 80.7729 105.867C80.7772 105.87 80.7815 105.872 80.7857 105.874C80.7918 105.877 80.7979 105.88 80.8039 105.883C80.8095 105.886 80.8149 105.889 80.8203 105.891C80.8255 105.894 80.8309 105.896 80.836 105.899C80.8421 105.902 80.8484 105.905 80.8545 105.908C80.8607 105.911 80.867 105.913 80.8735 105.916C80.8785 105.919 80.8832 105.921 80.8881 105.923C80.8949 105.926 80.9014 105.929 80.9081 105.932C80.9131 105.934 80.918 105.936 80.9232 105.938C80.9293 105.941 80.9353 105.944 80.9414 105.946C80.947 105.948 80.9526 105.951 80.9582 105.953C80.9647 105.956 80.971 105.958 80.9775 105.961C80.9825 105.963 80.9874 105.965 80.9924 105.966C80.9998 105.969 81.0074 105.972 81.0148 105.975C81.0189 105.977 81.0227 105.978 81.0267 105.98C81.0346 105.982 81.0424 105.985 81.0503 105.988C81.0541 105.989 81.0579 105.991 81.0618 105.992C81.0703 105.995 81.0788 105.998 81.0876 106.001C81.0903 106.002 81.0932 106.003 81.0961 106.004C81.1056 106.007 81.1148 106.01 81.1242 106.013C81.1267 106.014 81.1289 106.015 81.1314 106.015C81.1406 106.018 81.1496 106.021 81.1588 106.024C81.1617 106.025 81.1646 106.026 81.1676 106.027C81.1768 106.029 81.1858 106.032 81.195 106.035C81.1977 106.035 81.2001 106.036 81.2028 106.037C81.212 106.039 81.221 106.042 81.2302 106.044C81.2331 106.045 81.2361 106.046 81.239 106.046C81.2484 106.049 81.2576 106.051 81.2671 106.054C81.2693 106.054 81.2716 106.055 81.2738 106.055C81.2841 106.058 81.2947 106.06 81.305 106.063C81.3061 106.063 81.3073 106.063 81.3084 106.064C81.3192 106.066 81.3297 106.068 81.3405 106.071C81.3421 106.071 81.3434 106.071 81.345 106.072C81.3558 106.074 81.3666 106.076 81.3773 106.078C81.3785 106.078 81.3794 106.079 81.3803 106.079C81.3917 106.081 81.4029 106.083 81.4144 106.085C81.4149 106.085 81.4153 106.085 81.4158 106.085C81.4274 106.087 81.4393 106.089 81.451 106.091C81.4512 106.091 81.4512 106.091 81.4515 106.091C81.5696 106.11 81.6889 106.12 81.8081 106.12C82.0307 106.12 82.2533 106.087 82.4683 106.021C82.4683 106.021 82.4685 106.021 82.4687 106.021C82.504 106.01 82.539 105.998 82.5736 105.986C82.5738 105.986 82.5741 105.985 82.5741 105.985C82.6089 105.973 82.6432 105.959 82.6774 105.945C82.6778 105.945 82.6781 105.945 82.6785 105.944C82.6897 105.94 82.701 105.935 82.7122 105.93C82.7124 105.93 82.7126 105.93 82.7129 105.93C82.7349 105.92 82.7569 105.91 82.7787 105.9C82.7796 105.899 82.7805 105.899 82.7814 105.898C82.8133 105.883 82.8449 105.867 82.8762 105.85C82.8782 105.849 82.88 105.848 82.882 105.847C82.893 105.84 82.9038 105.835 82.9148 105.828C82.9588 105.803 83.0017 105.777 83.0437 105.75C83.0646 105.736 83.0853 105.722 83.1057 105.707C83.1158 105.7 83.1259 105.693 83.136 105.685C83.709 105.265 84.0542 104.594 84.0542 103.874V91.5199H106.066V108.142H33.9668ZM111.008 87.0283H105.543V70.4072H111.008V87.0283Z" fill="#757474"/>
</g>
<defs>
<clipPath id="clip0">
<rect width="115" height="115" fill="white" transform="translate(0.5)"/>
</clipPath>
</defs>
</svg>
