<svg width="201" height="200" viewBox="0 0 201 200" fill="none" xmlns="http://www.w3.org/2000/svg">
<g clip-path="url(#clip0)">
<path d="M99.8329 195.588C92.8659 195.588 85.9025 194.184 79.4539 191.38L48.6186 177.975C37.4631 173.123 25.668 170.049 13.5614 168.839L3.43527 167.827C1.7681 167.661 0.5 166.258 0.5 164.584V132.82C0.5 132.115 0.729376 131.428 1.1527 130.865C1.90982 129.853 20.0585 106.143 47.7813 112.312C63.3733 115.777 75.9275 122.261 83.7132 127.091C89.3655 130.597 95.9913 132.448 102.875 132.448H133.71C139.025 132.448 143.696 135.261 146.309 139.479L172.866 108.882C178.015 102.007 186.438 97.7959 195.257 97.7959H197.241C198.343 97.7959 199.369 98.3516 199.97 99.2729C200.572 100.194 200.667 101.36 200.225 102.367L176.206 156.954C170.954 168.893 160.261 177.912 147.605 181.076L143.379 182.132L118.797 191.965C112.747 194.384 106.289 195.588 99.8329 195.588ZM7.01951 161.633L14.2104 162.353C26.9902 163.631 39.4417 166.877 51.2201 171.998L82.0535 185.403C92.8957 190.117 105.4 190.302 116.378 185.91L141.162 175.996C141.3 175.942 141.44 175.898 141.583 175.862L146.023 174.751C156.741 172.071 165.794 164.436 170.238 154.329L192.147 104.539C186.537 105.365 181.375 108.388 177.936 112.972L148.517 146.879C148.52 147.005 148.522 147.13 148.522 147.259C148.522 155.425 141.878 162.07 133.712 162.07H90.6896C85.0969 162.07 79.5695 162.967 74.264 164.735L73.0668 161.695L72.0542 158.597L72.2201 158.543C78.1746 156.559 84.3939 155.55 90.6896 155.55H133.712C138.282 155.55 142.005 151.83 142.005 147.257C142.005 142.685 138.284 138.964 133.712 138.964H102.876C94.7773 138.964 86.9636 136.773 80.28 132.628C72.9251 128.064 61.0684 121.942 46.3715 118.673C25.3771 114.016 10.2699 130.129 7.02137 133.972V161.633H7.01951Z" fill="#757474"/>
<path d="M128.857 97.0593C123.845 97.0593 118.224 95.5115 112.037 92.4177C111.287 92.041 110.709 91.3883 110.425 90.5995C110.174 89.8927 104.35 73.1408 113.605 60.7526C120.331 51.7472 132.979 47.6912 151.217 48.7075C152.88 48.7989 154.206 50.1323 154.288 51.7995C154.354 53.0937 155.698 83.6417 140.121 93.8126C136.809 95.9777 133.046 97.0593 128.857 97.0593ZM116.193 87.1868C124.755 91.2018 131.599 91.5953 136.559 88.356C145.796 82.3233 147.793 64.4151 147.842 55.0946C133.551 54.7459 123.822 57.9665 118.826 64.652C112.881 72.613 115.192 83.5634 116.193 87.1868Z" fill="#757474"/>
<path d="M79.0123 54.356C73.2332 54.356 66.5663 53.1177 60.748 48.8566C50.8792 41.6247 46.3439 27.8565 47.2652 7.93621C47.3435 6.27091 48.6638 4.93194 50.3291 4.83311C51.7389 4.75292 85.1085 2.97199 96.3367 19.8265C101.566 27.6719 101.137 37.9472 95.0668 50.3727C94.6975 51.1279 94.0523 51.7116 93.2635 52.0007C92.8252 52.1629 86.7067 54.356 79.0123 54.356ZM92.139 48.9423H92.1707H92.139ZM53.6802 11.2463C53.3986 27.2019 57.0668 38.0777 64.5989 43.5977C73.6173 50.2048 85.9309 47.3964 89.8023 46.2681C94.2313 36.6567 94.6062 28.9829 90.9138 23.4405C84.0511 13.1391 63.9257 11.1251 53.6802 11.2463Z" fill="#757474"/>
<path d="M104.467 137.819C104.364 137.819 104.261 137.814 104.157 137.804C102.421 137.64 101.121 136.139 101.209 134.395C101.401 130.561 101.729 126.925 102.175 123.478C103.53 100.414 102.831 46.7027 68.8722 31.8436C67.2237 31.1219 66.4703 29.2011 67.192 27.5507C67.9118 25.904 69.8382 25.1525 71.4848 25.8723C91.4965 34.6278 104.086 56.426 107.885 88.9098C108.226 91.8208 108.482 94.6908 108.672 97.4862C117.616 74.8861 131.298 66.9008 132.113 66.444C133.679 65.5582 135.667 66.1213 136.551 67.686C137.43 69.2524 136.878 71.2348 135.317 72.1187C134.972 72.3201 113.99 84.9115 108.724 123.741C108.323 130.384 107.745 134.619 107.691 135.007C107.465 136.633 106.076 137.819 104.467 137.819Z" fill="#828282"/>
</g>
<defs>
<clipPath id="clip0">
<rect width="200" height="200" fill="white" transform="translate(0.5)"/>
</clipPath>
</defs>
</svg>
