<svg width="160" height="60" viewBox="0 0 160 60" fill="none" xmlns="http://www.w3.org/2000/svg">
<g clip-path="url(#clip0)">
<path d="M13.8484 35.8008L17.4484 36.0012L8.34844 55.0012H5L13.8484 35.8008Z" fill="black"/>
<path d="M13.0227 45.241H9.49666C9.87932 44.4483 10.2347 43.683 10.5627 42.945C10.918 42.2343 11.2597 41.4963 11.5877 40.731C11.943 39.993 12.2983 39.214 12.6537 38.394C13.009 37.6013 13.4053 36.7403 13.8427 35.811C13.214 34.581 12.5717 33.2963 11.9157 31.957C11.2597 30.5903 10.6037 29.2237 9.94766 27.857C9.29166 26.4903 8.63566 25.1237 7.97966 23.757C7.35099 22.3903 6.72232 21.092 6.09366 19.862H9.90666C10.8907 21.8027 11.697 23.4427 12.3257 24.782C12.9817 26.1213 13.5147 27.283 13.9247 28.267C14.362 29.2237 14.7037 30.0437 14.9497 30.727C15.223 31.4103 15.4553 32.039 15.6467 32.613C15.8653 32.039 16.0977 31.4103 16.3437 30.727C16.617 30.0437 16.9587 29.2237 17.3687 28.267C17.806 27.283 18.339 26.1213 18.9677 24.782C19.6237 23.4427 20.4437 21.8027 21.4277 19.862H25.2407L13.0227 45.241ZM26.1372 28.595C26.1372 27.3377 26.3695 26.1623 26.8342 25.069C27.3262 23.9483 27.9822 22.978 28.8022 22.158C29.6222 21.3107 30.5652 20.641 31.6312 20.149C32.7245 19.657 33.8862 19.411 35.1162 19.411C35.9362 19.411 36.6879 19.5203 37.3712 19.739C38.0545 19.9303 38.6422 20.1763 39.1342 20.477C39.6262 20.7777 40.0225 21.092 40.3232 21.42C40.6239 21.748 40.8289 22.035 40.9382 22.281L41.1022 19.862H44.4642V37H40.9382V34.827C40.8015 35.0457 40.5829 35.3053 40.2822 35.606C39.9815 35.9067 39.5852 36.1937 39.0932 36.467C38.6285 36.713 38.0682 36.9317 37.4122 37.123C36.7562 37.3143 36.0045 37.41 35.1572 37.41C33.8452 37.41 32.6289 37.1777 31.5082 36.713C30.4149 36.221 29.4719 35.5787 28.6792 34.786C27.8865 33.966 27.2579 33.023 26.7932 31.957C26.3559 30.891 26.1372 29.7703 26.1372 28.595ZM29.6632 28.39C29.6632 29.1827 29.7999 29.9207 30.0732 30.604C30.3739 31.2873 30.7702 31.875 31.2622 32.367C31.7542 32.859 32.3419 33.2553 33.0252 33.556C33.7085 33.8293 34.4602 33.966 35.2802 33.966C36.1002 33.966 36.8519 33.8293 37.5352 33.556C38.2459 33.2553 38.8472 32.859 39.3392 32.367C39.8585 31.8477 40.2549 31.26 40.5282 30.604C40.8015 29.9207 40.9382 29.1827 40.9382 28.39C40.9382 27.5973 40.8015 26.873 40.5282 26.217C40.2549 25.5337 39.8585 24.946 39.3392 24.454C38.8472 23.962 38.2459 23.5793 37.5352 23.306C36.8519 23.0053 36.1002 22.855 35.2802 22.855C34.4602 22.855 33.7085 23.0053 33.0252 23.306C32.3419 23.5793 31.7542 23.962 31.2622 24.454C30.7702 24.946 30.3739 25.5337 30.0732 26.217C29.7999 26.873 29.6632 27.5973 29.6632 28.39ZM58.8177 23.921C58.0524 23.921 57.3144 24.0303 56.6037 24.249C55.8931 24.4403 55.2507 24.741 54.6767 25.151C54.1301 25.561 53.6927 26.0803 53.3647 26.709C53.0367 27.3103 52.8727 28.0073 52.8727 28.8V37H49.3877V19.862H52.4627C52.5174 20.7093 52.5584 21.4883 52.5857 22.199C52.6404 22.8823 52.6951 23.5657 52.7497 24.249C53.1051 23.511 53.5697 22.8413 54.1437 22.24C54.7177 21.6387 55.3327 21.133 55.9887 20.723C56.6447 20.313 57.2871 19.9987 57.9157 19.78C58.5444 19.534 59.1047 19.411 59.5967 19.411L58.8177 23.921ZM60.6518 28.431C60.6518 27.0917 60.8705 25.8753 61.3078 24.782C61.7725 23.6613 62.4012 22.7047 63.1938 21.912C63.9865 21.1193 64.9158 20.5043 65.9818 20.067C67.0752 19.6297 68.2505 19.411 69.5078 19.411C70.3552 19.411 71.1068 19.5203 71.7628 19.739C72.4462 19.9303 73.0202 20.1763 73.4848 20.477C73.9768 20.7503 74.3868 21.0647 74.7148 21.42C75.0428 21.7753 75.2888 22.0897 75.4528 22.363V5.143H78.9788V37H75.4528V35.729C75.4528 35.565 75.4665 35.3873 75.4938 35.196C75.5212 34.9773 75.5348 34.7997 75.5348 34.663C75.2615 34.991 74.9335 35.319 74.5508 35.647C74.1955 35.9477 73.7718 36.2347 73.2798 36.508C72.7878 36.7813 72.2138 37 71.5578 37.164C70.9292 37.328 70.2048 37.41 69.3848 37.41C68.0182 37.41 66.7882 37.1777 65.6948 36.713C64.6288 36.221 63.7132 35.5787 62.9478 34.786C62.2098 33.966 61.6358 33.0093 61.2258 31.916C60.8432 30.8227 60.6518 29.661 60.6518 28.431ZM64.1778 28.39C64.1778 29.1827 64.3145 29.9207 64.5878 30.604C64.8885 31.2873 65.2848 31.875 65.7768 32.367C66.2688 32.859 66.8565 33.2553 67.5398 33.556C68.2232 33.8293 68.9748 33.966 69.7948 33.966C70.6148 33.966 71.3665 33.8293 72.0498 33.556C72.7605 33.2553 73.3618 32.859 73.8538 32.367C74.3732 31.8477 74.7695 31.26 75.0428 30.604C75.3162 29.9207 75.4528 29.1827 75.4528 28.39C75.4528 27.5973 75.3162 26.873 75.0428 26.217C74.7695 25.5337 74.3732 24.946 73.8538 24.454C73.3618 23.962 72.7605 23.5793 72.0498 23.306C71.3665 23.0053 70.6148 22.855 69.7948 22.855C68.9748 22.855 68.2232 23.0053 67.5398 23.306C66.8565 23.5793 66.2688 23.962 65.7768 24.454C65.2848 24.946 64.8885 25.5337 64.5878 26.217C64.3145 26.873 64.1778 27.5973 64.1778 28.39ZM93.4544 21.379L91.6094 23.839C91.5821 23.8117 91.4864 23.7433 91.3224 23.634C91.1584 23.5247 90.9397 23.4153 90.6664 23.306C90.4204 23.1967 90.1197 23.101 89.7644 23.019C89.4364 22.9097 89.0947 22.855 88.7394 22.855C88.2747 22.855 87.8101 22.9643 87.3454 23.183C86.9081 23.4017 86.6894 23.8117 86.6894 24.413C86.6894 24.9323 86.8671 25.356 87.2224 25.684C87.6051 26.012 88.0697 26.3127 88.6164 26.586C89.1631 26.832 89.7507 27.0917 90.3794 27.365C91.0354 27.6383 91.6367 27.98 92.1834 28.39C92.7301 28.7727 93.1811 29.2647 93.5364 29.866C93.9191 30.44 94.1104 31.178 94.1104 32.08C94.1104 33.6107 93.5774 34.8817 92.5114 35.893C91.4727 36.877 90.0377 37.369 88.2064 37.369C87.1404 37.369 86.0881 37.1913 85.0494 36.836C84.0381 36.4533 83.2181 35.9067 82.5894 35.196C82.7807 35.0047 82.9857 34.7587 83.2044 34.458C83.4504 34.1573 83.6827 33.8703 83.9014 33.597C84.1474 33.3237 84.3387 33.105 84.4754 32.941C84.6394 32.7497 84.7351 32.654 84.7624 32.654C84.7624 32.6813 84.8581 32.7633 85.0494 32.9C85.2681 33.0367 85.5414 33.187 85.8694 33.351C86.1974 33.4877 86.5664 33.6243 86.9764 33.761C87.3864 33.8703 87.7964 33.925 88.2064 33.925C88.8624 33.925 89.4227 33.761 89.8874 33.433C90.3521 33.105 90.5844 32.6677 90.5844 32.121C90.5844 31.629 90.3931 31.2463 90.0104 30.973C89.6551 30.6723 89.2041 30.399 88.6574 30.153C88.1107 29.907 87.5094 29.661 86.8534 29.415C86.1974 29.1417 85.5961 28.8 85.0494 28.39C84.5027 27.98 84.0381 27.4743 83.6554 26.873C83.3001 26.2443 83.1224 25.438 83.1224 24.454C83.1224 23.5247 83.2864 22.7457 83.6144 22.117C83.9697 21.4883 84.4071 20.9827 84.9264 20.6C85.4731 20.19 86.0744 19.903 86.7304 19.739C87.3864 19.5477 88.0151 19.452 88.6164 19.452C89.4091 19.452 90.2564 19.616 91.1584 19.944C92.0604 20.272 92.8257 20.7503 93.4544 21.379ZM99.311 12.318H102.796V19.903H107.388V23.019H102.796V37H99.311V23.019H96.236V19.903H99.311V12.318ZM109.836 13.302C109.836 12.646 110.068 12.0993 110.533 11.662C111.025 11.2247 111.544 11.006 112.091 11.006C112.638 11.006 113.143 11.2247 113.608 11.662C114.073 12.0993 114.305 12.646 114.305 13.302C114.305 13.958 114.073 14.5047 113.608 14.942C113.143 15.352 112.638 15.557 112.091 15.557C111.544 15.557 111.025 15.352 110.533 14.942C110.068 14.5047 109.836 13.958 109.836 13.302ZM113.772 37H110.287V19.862H113.772V37ZM130.175 32.777C130.558 33.2417 130.913 33.6927 131.241 34.13C131.597 34.54 131.952 34.9773 132.307 35.442C131.542 36.0433 130.681 36.5217 129.724 36.877C128.768 37.2323 127.729 37.41 126.608 37.41C125.351 37.41 124.162 37.1777 123.041 36.713C121.948 36.221 120.991 35.565 120.171 34.745C119.351 33.925 118.695 32.9683 118.203 31.875C117.739 30.7817 117.506 29.62 117.506 28.39C117.506 27.16 117.739 25.9983 118.203 24.905C118.695 23.8117 119.351 22.8687 120.171 22.076C120.991 21.256 121.948 20.6137 123.041 20.149C124.162 19.657 125.351 19.411 126.608 19.411C127.756 19.411 128.809 19.5887 129.765 19.944C130.749 20.2993 131.638 20.7777 132.43 21.379L130.175 24.044C129.711 23.6613 129.178 23.3743 128.576 23.183C127.975 22.9643 127.319 22.855 126.608 22.855C125.788 22.855 125.037 23.0053 124.353 23.306C123.67 23.5793 123.069 23.962 122.549 24.454C122.057 24.946 121.675 25.5337 121.401 26.217C121.128 26.873 120.991 27.5973 120.991 28.39C120.991 29.1827 121.128 29.9207 121.401 30.604C121.675 31.26 122.057 31.8477 122.549 32.367C123.069 32.859 123.67 33.2553 124.353 33.556C125.037 33.8293 125.788 33.966 126.608 33.966C127.319 33.966 127.975 33.8703 128.576 33.679C129.178 33.4603 129.711 33.1597 130.175 32.777ZM147.929 19.411L150.02 21.502C148.981 22.4587 147.984 23.388 147.027 24.29C146.098 25.192 145.114 26.135 144.075 27.119C145.305 28.759 146.508 30.4127 147.683 32.08C148.858 33.72 150.047 35.36 151.25 37H147.232C146.303 35.7153 145.36 34.458 144.403 33.228C143.474 31.9707 142.544 30.6997 141.615 29.415L139.237 31.588V37H135.752V5.143H139.237V27.488C140.768 26.094 142.23 24.7547 143.624 23.47C145.018 22.158 146.453 20.805 147.929 19.411Z" fill="black"/>
<g clip-path="url(#clip1)">
<rect x="26.3477" y="41.5" width="126" height="11" fill="none"/>
<line x1="26.3477" y1="50.3906" x2="152.3477" y2="50.3906" stroke="black" stroke-width="0.5"/>
<rect width="1" height="7" transform="translate(39.8477 41)" fill="black"/>
<rect width="1" height="5" transform="translate(32.8477 41)" fill="black"/>
<rect width="1" height="7" transform="translate(53.8477 41)" fill="black"/>
<rect width="1" height="5" transform="translate(46.8477 41)" fill="black"/>
<rect width="1" height="7" transform="translate(67.8477 41)" fill="black"/>
<rect width="1" height="5" transform="translate(60.8477 41)" fill="black"/>
<rect width="1" height="7" transform="translate(81.8477 41)" fill="black"/>
<rect width="1" height="5" transform="translate(74.8477 41)" fill="black"/>
<rect width="1" height="7" transform="translate(95.8477 41)" fill="black"/>
<rect width="1" height="5" transform="translate(88.8477 41)" fill="black"/>
<rect width="1" height="7" transform="translate(109.848 41)" fill="black"/>
<rect width="1" height="5" transform="translate(102.848 41)" fill="black"/>
<rect width="1" height="7" transform="translate(123.848 41)" fill="black"/>
<rect width="1" height="5" transform="translate(116.848 41)" fill="black"/>
<rect width="1" height="7" transform="translate(137.848 41)" fill="black"/>
<rect width="1" height="5" transform="translate(130.848 41)" fill="black"/>
<rect width="1" height="5" transform="translate(144.848 41)" fill="black"/>
</g>
<rect x="26.3477" y="41.5" width="126" height="11" stroke="black"/>
</g>
<defs>
<clipPath id="clip0">
<rect width="160" height="60" fill="white"/>
</clipPath>
<clipPath id="clip1">
<rect width="160" height="60" fill="white"/>
</clipPath>
</defs>
</svg>
