<svg width="116" height="115" viewBox="0 0 116 115" fill="none" xmlns="http://www.w3.org/2000/svg">
<g clip-path="url(#clip0)">
<path d="M114.186 17.1254L98.3751 1.31507C96.6256 -0.437055 93.7759 -0.437055 92.0229 1.31507L1.81607 91.5236C0.967643 92.3729 0.5 93.5004 0.5 94.6997C0.5 95.8991 0.967643 97.0292 1.81607 97.8759L17.6264 113.687C18.5029 114.563 19.6532 115.001 20.8025 115.001C21.9528 115.001 23.103 114.563 23.9787 113.687L31.1688 106.497L46.2667 91.3982L61.3278 76.3397L61.4085 76.259L76.4661 61.1979L107.05 30.6143L114.185 23.4777C115.938 21.7255 115.938 18.8776 114.186 17.1254ZM105.076 26.2361L99.2604 20.4182C98.3821 19.5426 96.9599 19.5426 96.0816 20.4182C95.206 21.2965 95.206 22.7187 96.0816 23.5952L101.9 29.4122L89.9838 41.3279L84.1572 35.5153C83.2789 34.6397 81.8567 34.6414 80.9811 35.5197C80.1054 36.3979 80.1072 37.8202 80.9855 38.6984L86.8077 44.5049L74.878 56.4364L69.061 50.6185C68.1827 49.7402 66.7605 49.7402 65.8849 50.6185C65.0066 51.495 65.0066 52.9163 65.8849 53.7946L71.7019 59.6125L59.7801 71.5352L53.9622 65.7173C53.0839 64.839 51.6626 64.839 50.7861 65.7173C49.9078 66.5938 49.9078 68.0152 50.7861 68.8934L56.604 74.7113L44.6813 86.6358L38.8643 80.8161C37.986 79.9378 36.5638 79.9378 35.6855 80.8161C34.8099 81.6944 34.8099 83.1166 35.6881 83.9922L41.506 89.8119L29.5833 101.735L23.7654 95.9149C22.8872 95.0393 21.4658 95.0393 20.5876 95.9149C19.712 96.7932 19.712 98.2145 20.5876 99.091L26.4072 104.911L20.8061 110.513C20.8061 110.513 20.8061 110.513 20.8034 110.51L4.99218 94.6997L95.199 4.49118L111.009 20.3015L105.076 26.2361Z" fill="#757474"/>
<path d="M92.0399 18.6206C90.7993 18.6206 89.793 17.6151 89.793 16.3745C89.793 15.1339 90.7976 14.1284 92.0373 14.1284H92.0399C93.2806 14.1284 94.286 15.1339 94.286 16.3745C94.286 17.6151 93.2806 18.6206 92.0399 18.6206Z" fill="#757474"/>
</g>
<defs>
<clipPath id="clip0">
<rect width="115" height="115" fill="white" transform="translate(0.5)"/>
</clipPath>
</defs>
</svg>
