<svg width="116" height="115" viewBox="0 0 116 115" fill="none" xmlns="http://www.w3.org/2000/svg">
<g clip-path="url(#clip0)">
<path d="M103.739 20.8485H93.9376V8.23849C93.9376 5.60652 91.7966 3.46533 89.1647 3.46533H81.8649C79.2329 3.46533 77.0919 5.60652 77.0919 8.23849V20.8485H38.9083V8.23849C38.9083 5.60652 36.7671 3.46533 34.1351 3.46533H26.8356C24.2036 3.46533 22.0624 5.60652 22.0624 8.23849V20.8485H12.261C5.77583 20.8485 0.5 26.1245 0.5 32.6096L0.500225 33.3171L0.5 99.7736C0.5 106.259 5.77583 111.534 12.261 111.534H103.739C110.224 111.534 115.5 106.259 115.5 99.7736V32.6096C115.5 26.1245 110.224 20.8485 103.739 20.8485ZM81.5841 8.23849C81.5841 8.08867 81.7153 7.9575 81.8649 7.9575H89.1647C89.3142 7.9575 89.4454 8.08867 89.4454 8.23849V29.1974C89.4454 29.3472 89.3142 29.4784 89.1647 29.4784H81.8649C81.7153 29.4784 81.5841 29.3472 81.5841 29.1974V8.23849ZM26.5546 8.23849C26.5546 8.08867 26.686 7.9575 26.8356 7.9575H34.1351C34.2847 7.9575 34.4161 8.08867 34.4161 8.23849V29.1974C34.4161 29.3472 34.2847 29.4784 34.1351 29.4784H26.8356C26.686 29.4784 26.5546 29.3472 26.5546 29.1974V8.23849ZM28.1268 107.042H12.261C8.25304 107.042 4.99217 103.782 4.99217 99.7736V83.6068H28.1268V107.042ZM28.1268 79.1146H4.99217V55.6792H28.1268V79.1146ZM55.7537 107.042H32.619V83.6068H55.7537V107.042ZM55.7537 79.1146H32.619V55.6792H55.7537V79.1146ZM83.3805 107.042H60.2459V83.6068H83.3805V107.042ZM83.3805 79.1146H60.2459V55.6792H83.3805V79.1146ZM111.008 99.7736C111.008 103.782 107.747 107.042 103.739 107.042H87.8727V83.6068H111.008V99.7736ZM111.008 79.1146H87.8727V55.6792H111.008V79.1146ZM111.008 43.303H92.4821C91.2416 43.303 90.236 44.3086 90.236 45.5491C90.236 46.7896 91.2416 47.7952 92.4821 47.7952H111.008V51.187H4.99217V32.6096C4.99217 28.6015 8.25304 25.3406 12.261 25.3406H22.0624V29.1974C22.0624 31.8293 24.2036 33.9705 26.8356 33.9705H34.1351C36.7671 33.9705 38.9083 31.8293 38.9083 29.1974V25.3406H77.0919V29.1974C77.0919 31.8293 79.2329 33.9705 81.8649 33.9705H89.1647C91.7966 33.9705 93.9376 31.8293 93.9376 29.1974V25.3406H103.739C107.747 25.3406 111.008 28.6015 111.008 32.6096V43.303Z" fill="#757474"/>
<path d="M85.9176 43.3032H85.7422C84.5017 43.3032 83.4961 44.3088 83.4961 45.5493C83.4961 46.7896 84.5017 47.7954 85.7422 47.7954H85.9176C87.1579 47.7954 88.1637 46.7898 88.1637 45.5493C88.1637 44.3088 87.1579 43.3032 85.9176 43.3032Z" fill="#757474"/>
<path d="M106.826 61.1081C105.834 60.3637 104.426 60.5649 103.682 61.5573L98.4971 68.4694L94.9946 64.9666C94.1179 64.0897 92.6955 64.0893 91.8182 64.9664C90.9409 65.8435 90.9409 67.2655 91.8179 68.1428L97.1515 73.477C97.5742 73.8997 98.1461 74.1349 98.7395 74.1349C98.7925 74.1349 98.8457 74.1331 98.8987 74.1293C99.5485 74.083 100.146 73.7573 100.537 73.2365L107.275 64.2526C108.02 63.2602 107.818 61.8524 106.826 61.1081Z" fill="#757474"/>
<path d="M79.1983 89.0353C78.206 88.2909 76.7981 88.4922 76.0538 89.4845L70.8691 96.397L67.3657 92.8936C66.4884 92.0165 65.0666 92.0165 64.1891 92.8936C63.312 93.7707 63.312 95.1929 64.1891 96.0702L69.5237 101.405C69.9465 101.828 70.5185 102.063 71.1117 102.063C71.1647 102.063 71.218 102.061 71.2712 102.057C71.9208 102.011 72.5182 101.685 72.9088 101.164L79.6473 92.18C80.3916 91.1875 80.1906 89.7796 79.1983 89.0353Z" fill="#757474"/>
<path d="M51.5689 61.1081C50.5766 60.3637 49.1687 60.5649 48.4244 61.5573L43.2402 68.4696L39.7365 64.9664C38.8597 64.0893 37.4372 64.0893 36.5601 64.9666C35.683 65.8437 35.683 67.2659 36.5606 68.143L41.8952 73.4772C42.3179 73.9 42.8898 74.1351 43.483 74.1351C43.536 74.1351 43.5892 74.1333 43.6425 74.1295C44.292 74.0832 44.8895 73.7575 45.2801 73.2367L52.0181 64.2526C52.7625 63.2602 52.5612 61.8524 51.5689 61.1081Z" fill="#757474"/>
</g>
<defs>
<clipPath id="clip0">
<rect width="115" height="115" fill="white" transform="translate(0.5)"/>
</clipPath>
</defs>
</svg>
